<svg width="452" height="413" viewBox="0 0 452 413" fill="none" xmlns="http://www.w3.org/2000/svg">
<rect x="3" y="127" width="218" height="180" rx="20" fill="#555271" stroke="black" stroke-width="6"/>
<path d="M95 274.33C96.2922 279.95 99.0529 285.126 103 289.33C105.016 283.929 105.561 278.09 104.58 272.41C103.296 266.787 100.534 261.609 96.58 257.41C94.5606 262.81 94.0153 268.65 95 274.33Z" fill="#56AF96"/>
<path d="M115.55 277.6C113.67 286.42 106.38 292.6 106.38 292.6C106.38 292.6 102.15 284.46 104.04 275.6C105.93 266.74 113.21 260.6 113.21 260.6C113.21 260.6 117.44 268.78 115.55 277.6Z" fill="#6FDCBF"/>
<path d="M85.43 291.36C90.81 303.52 100.35 317.61 100.35 317.61C100.35 317.61 101.17 297.99 95.79 285.83C92.3816 278.34 87.2729 271.749 80.87 266.58C80.5911 275.072 82.1465 283.524 85.43 291.36Z" fill="#6FDCBF"/>
<path d="M123.8 291C119.15 303.5 110 318.26 110 318.26C110 318.26 108.45 298.72 113.1 286.26C116.077 278.513 120.799 271.556 126.9 265.93C127.672 274.412 126.615 282.961 123.8 291Z" fill="#6FDCBF"/>
<path d="M92.89 288.43C95.55 299.64 102.47 314.36 102.47 314.36C102.47 314.36 105.09 296.91 102.47 285.7C100.737 278.752 97.4591 272.285 92.88 266.78C91.3376 273.915 91.341 281.297 92.89 288.43Z" fill="#6FDCBF"/>
<path d="M92.73 291.91C94.99 301.46 101.6 314.83 101.6 314.83C101.6 314.83 104.53 298.73 102.27 289.18C100.735 283.197 97.6794 277.713 93.4 273.26C91.6635 279.33 91.4335 285.731 92.73 291.91Z" fill="#52B292"/>
<path d="M103.87 290.72C102.64 302.36 107.93 320.61 107.93 320.61C107.93 320.61 115.24 303.98 116.48 292.34C117.72 280.7 112.42 270.46 112.42 270.46C112.42 270.46 105.12 279.08 103.87 290.72Z" fill="#56AF96"/>
<path d="M99.51 300.91C99.6667 306.673 101.351 312.291 104.39 317.19C107.435 312.293 109.123 306.674 109.28 300.91C109.28 291.91 104.39 277.63 104.39 277.63C104.39 277.63 99.51 291.92 99.51 300.91Z" fill="#A4D3BA"/>
<path d="M115.62 306.68C115.53 305.87 92.38 302.48 92.47 303.31L95.29 328.48C95.3085 328.65 95.3906 328.808 95.52 328.92C95.5746 328.999 95.648 329.063 95.7335 329.107C95.819 329.15 95.914 329.172 96.01 329.17H114.25C114.7 329.17 114.89 329.07 115.01 328.76C115.1 328.494 115.16 328.219 115.19 327.94C115.897 320.873 116.47 313.787 116.91 306.68C117 305.85 115.67 305.86 115.62 306.68Z" fill="#AD998A"/>
<path d="M119.54 302.37C119.04 301.83 118 301.73 116 301.73H94.21C92.21 301.73 91.21 301.79 90.74 302.3C90.27 302.81 90.33 303.42 90.38 304.53V306.82C90.38 308.37 90.38 309.22 90.88 309.74C91.38 310.26 92.44 310.32 94.18 310.32H116C118 310.32 118.93 310.32 119.44 309.77C119.95 309.22 119.86 308.64 119.82 307.42V306.03C119.82 305.5 119.82 304.89 119.88 304.44C119.93 303.47 120 302.83 119.54 302.37Z" fill="#C1AB9D"/>
<path opacity="0.49" d="M91.93 302.84C91.6173 303.941 91.5323 305.095 91.68 306.23C91.75 306.75 92.57 306.76 92.5 306.23C92.3576 305.166 92.4325 304.084 92.72 303.05C92.7385 302.949 92.7182 302.844 92.6629 302.757C92.6077 302.67 92.5217 302.607 92.422 302.58C92.3223 302.554 92.2163 302.566 92.1252 302.614C92.034 302.662 91.9643 302.743 91.93 302.84ZM92.47 307.88C92.5787 307.88 92.683 307.837 92.7599 307.76C92.8368 307.683 92.88 307.579 92.88 307.47C92.88 307.361 92.8368 307.257 92.7599 307.18C92.683 307.103 92.5787 307.06 92.47 307.06C92.3613 307.06 92.257 307.103 92.1801 307.18C92.1032 307.257 92.06 307.361 92.06 307.47C92.06 307.579 92.1032 307.683 92.1801 307.76C92.257 307.837 92.3613 307.88 92.47 307.88ZM113.31 316.48C113.14 317.22 112.94 318.33 113.88 318.64C114.82 318.95 115.31 318.15 115.36 317.41C115.426 317.029 115.363 316.636 115.182 316.294C115.001 315.953 114.712 315.68 114.36 315.52C114.146 315.476 113.924 315.498 113.723 315.581C113.521 315.665 113.35 315.808 113.23 315.99C113.15 316.12 113.089 316.262 113.05 316.41C112.99 316.66 113.05 316.88 113.05 317.12C113.005 317.329 113.04 317.547 113.147 317.732C113.254 317.917 113.426 318.055 113.63 318.12C113.839 318.172 114.061 318.141 114.248 318.033C114.434 317.924 114.571 317.748 114.63 317.54C114.64 317.37 114.64 317.2 114.63 317.03V316.84C114.63 316.59 114.52 316.67 114.32 317.1H113.88C113.71 317.04 113.6 316.86 113.72 317.18C113.84 317.5 113.4 317.18 113.99 317.06H114.43C114.67 317.11 114.76 317.89 114.83 317.31C114.842 317.174 114.869 317.04 114.91 316.91C115.15 315.91 113.56 315.44 113.32 316.47L113.31 316.48ZM114.9 315.23C115.117 315.23 115.326 315.144 115.48 314.99C115.634 314.836 115.72 314.627 115.72 314.41C115.72 314.192 115.634 313.984 115.48 313.83C115.326 313.676 115.117 313.59 114.9 313.59C114.683 313.59 114.474 313.676 114.32 313.83C114.166 313.984 114.08 314.192 114.08 314.41C114.08 314.627 114.166 314.836 114.32 314.99C114.474 315.144 114.683 315.23 114.9 315.23ZM114.63 320.44C114.847 320.44 115.056 320.354 115.21 320.2C115.364 320.046 115.45 319.837 115.45 319.62C115.45 319.402 115.364 319.194 115.21 319.04C115.056 318.886 114.847 318.8 114.63 318.8C114.413 318.8 114.204 318.886 114.05 319.04C113.896 319.194 113.81 319.402 113.81 319.62C113.81 319.837 113.896 320.046 114.05 320.2C114.204 320.354 114.413 320.44 114.63 320.44Z" fill="white"/>
<path d="M142.68 329.43L152.3 294.92C152.363 294.729 152.385 294.526 152.363 294.326C152.341 294.126 152.276 293.933 152.172 293.76C152.069 293.587 151.929 293.439 151.763 293.325C151.597 293.211 151.408 293.134 151.21 293.1L144.77 291.1C144.586 291.018 144.387 290.977 144.186 290.979C143.985 290.982 143.787 291.028 143.605 291.114C143.423 291.201 143.263 291.326 143.134 291.48C143.005 291.635 142.912 291.816 142.86 292.01L133.24 326.53C133.201 326.639 133.207 326.758 133.255 326.863C133.304 326.968 133.392 327.049 133.5 327.09C133.555 327.103 133.612 327.106 133.668 327.097C133.725 327.088 133.778 327.068 133.827 327.038C133.875 327.009 133.917 326.97 133.95 326.923C133.983 326.877 134.007 326.825 134.02 326.77L134.14 326.4L142 328.83" fill="#6FDCBF"/>
<path d="M145 292.48C144.649 292.395 144.278 292.453 143.969 292.64C143.66 292.828 143.438 293.129 143.35 293.48L134.21 326.43L138 327.62L147.56 293.29L145 292.48Z" fill="#D2D8DB"/>
<path d="M142 328.83L151.13 295.88C151.254 295.54 151.239 295.166 151.09 294.836C150.94 294.507 150.667 294.25 150.33 294.12L147.59 293.29L138 327.62L142 328.83Z" fill="#E2E6E8"/>
<path d="M144.43 308.27C144.43 308.27 146.52 298.35 148.63 294.27C148.08 296.81 148 298 144.43 308.27Z" fill="#A3AEB2"/>
<path d="M146.53 300.97L149.58 301.9L149.36 299.98L150.72 298.55L147.56 297.59L146.53 300.97Z" fill="#AF91DB"/>
<path d="M163.09 329.77V280.01H174.3V329.77" fill="#A3D9E8"/>
<path d="M174.3 286.33H163.1V288.12H174.3V286.33Z" fill="#6FDCBF"/>
<path d="M174.3 288.93H163.1V290.72H174.3V288.93Z" fill="#6FDCBF"/>
<path d="M152.38 329.77V284.37H162.97V329.77" fill="#DD859C"/>
<path opacity="0.54" d="M162.97 294.29H152.38V295.91H162.97V294.29Z" fill="white"/>
<path opacity="0.54" d="M162.97 296.64H152.38V298.26H162.97V296.64Z" fill="white"/>
<path d="M183.99 328.81H84.16V333.04H183.99V328.81Z" fill="#404040"/>
<path fill-rule="evenodd" clip-rule="evenodd" d="M446.27 401.94H431.78C429.88 395.39 448.12 395.21 446.27 401.94Z" fill="#BABCBE"/>
<path fill-rule="evenodd" clip-rule="evenodd" d="M431.81 400C433.27 395.89 444.68 395.64 446.23 400C443.948 400.964 441.497 401.46 439.02 401.46C436.543 401.46 434.092 400.964 431.81 400Z" fill="#E5E6E7"/>
<path fill-rule="evenodd" clip-rule="evenodd" d="M439.72 397.08C439.72 397.104 439.711 397.127 439.694 397.144C439.677 397.161 439.654 397.17 439.63 397.17H438.41C438.386 397.17 438.363 397.161 438.346 397.144C438.329 397.127 438.32 397.104 438.32 397.08V396.71C438.32 396.6 438.58 396.51 438.89 396.51H439.15C439.46 396.51 439.72 396.6 439.72 396.71V397.08Z" fill="#424243"/>
<path d="M451.48 401.9H426.56C426.394 401.9 426.26 402.034 426.26 402.2V402.41C426.26 402.576 426.394 402.71 426.56 402.71H451.48C451.646 402.71 451.78 402.576 451.78 402.41V402.2C451.78 402.034 451.646 401.9 451.48 401.9Z" fill="#B2B2D8"/>
<path d="M305.07 143.86C305.07 150.97 299.81 156.74 293.32 156.74C286.83 156.74 281.58 150.97 281.58 143.86C281.58 136.75 286.84 131 293.32 131C299.8 131 305.07 136.74 305.07 143.86Z" fill="#FFF9CC"/>
<g style="mix-blend-mode:luminosity" opacity="0.45">
<path d="M266.97 143.86L172.99 402.3H421.78L319.57 143.86H266.97Z" fill="#FFF4C5"/>
</g>
<path d="M294.4 0.789978H292.26V91.87H294.4V0.789978Z" fill="#3F3D56"/>
<path d="M296.27 94.32V91.53C296.294 90.902 296.069 90.2898 295.644 89.8271C295.219 89.3643 294.628 89.0886 294 89.06H292.63C292.004 89.0911 291.415 89.368 290.992 89.8305C290.569 90.2929 290.346 90.9036 290.37 91.53V94.32C292.257 93.547 294.373 93.547 296.26 94.32H296.27Z" fill="#B2B2D8"/>
<path d="M302 103.25V112L301.64 111.92C296.591 111.137 291.457 111.073 286.39 111.73L285.03 111.92L284.66 112V103.25C284.663 102.778 284.696 102.307 284.76 101.84C284.828 101.339 284.935 100.844 285.08 100.36C285.08 100.3 285.08 100.24 285.13 100.18C285.205 99.9423 285.291 99.7086 285.39 99.4799C285.384 99.4402 285.384 99.3997 285.39 99.3599L285.57 98.9499C285.64 98.7999 285.71 98.6499 285.79 98.5099C286.079 97.9783 286.413 97.4731 286.79 96.9999C287.215 96.4746 287.695 95.9953 288.22 95.5699C288.38 95.4499 288.54 95.3199 288.72 95.2099C288.892 95.0851 289.073 94.9715 289.26 94.8699C289.438 94.757 289.621 94.6536 289.81 94.5599L290.37 94.3199C291.3 93.9389 292.295 93.742 293.3 93.7399C294.328 93.7354 295.347 93.9325 296.3 94.3199C297.579 94.8555 298.72 95.6734 299.638 96.7125C300.556 97.7516 301.226 98.9848 301.6 100.32C301.875 101.272 302.01 102.259 302 103.25Z" fill="#3F3D56"/>
<path d="M319.67 143.86H267L268.58 131.19C269.58 123.26 276.69 113.71 284.68 111.99L285.05 111.91L286.48 111.71C291.525 111.071 296.634 111.139 301.66 111.91L302 112C310 113.72 317.14 123.27 318.11 131.2L319.67 143.86Z" fill="#3F3D56"/>
<path d="M302 103.25H284.65C284.653 102.778 284.686 102.307 284.75 101.84C284.818 101.339 284.925 100.844 285.07 100.36H301.57C301.851 101.298 301.996 102.271 302 103.25ZM302 109.2V112L301.64 111.92C296.591 111.137 291.457 111.073 286.39 111.73L285.03 111.92L284.66 112V109.33C287.66 109.03 290.83 108.87 294.04 108.87C296.74 108.87 299.4 109 302 109.2Z" fill="#B2B2D8"/>
<path d="M319.67 141.86H266.98H264.94V145.62H321.71V141.86H319.67Z" fill="#B2B2D8"/>
<path d="M438.83 402.3H166.83C164.069 402.3 161.83 404.539 161.83 407.3C161.83 410.061 164.069 412.3 166.83 412.3H438.83C441.591 412.3 443.83 410.061 443.83 407.3C443.83 404.539 441.591 402.3 438.83 402.3Z" fill="#404040"/>
<path d="M214.8 384C214.8 384.231 214.708 384.452 214.545 384.615C214.382 384.778 214.161 384.87 213.93 384.87C213.699 384.87 213.478 384.778 213.315 384.615C213.152 384.452 213.06 384.231 213.06 384C213.036 383.687 212.944 383.383 212.79 383.11C212.571 382.678 212.26 382.299 211.88 382C211.551 381.736 211.142 381.592 210.72 381.59C210.469 381.605 210.223 381.673 210 381.79L209.84 381.88C209.565 382.058 209.333 382.295 209.16 382.573C208.988 382.852 208.878 383.165 208.84 383.49C208.739 384.445 208.942 385.407 209.42 386.24C209.5 386.4 209.6 386.58 209.71 386.76C210.493 387.863 211.402 388.869 212.42 389.76C214.21 391.48 216.07 393.27 216.62 395.76C216.658 395.875 216.671 395.997 216.659 396.117C216.647 396.238 216.609 396.355 216.549 396.46C216.49 396.565 216.408 396.657 216.311 396.729C216.214 396.801 216.102 396.852 215.984 396.879C215.866 396.906 215.743 396.907 215.624 396.884C215.505 396.86 215.393 396.812 215.294 396.743C215.194 396.673 215.111 396.583 215.048 396.48C214.986 396.376 214.945 396.26 214.93 396.14C214.49 394.19 212.82 392.59 211.22 391.04C210.082 390.043 209.075 388.908 208.22 387.66C208.1 387.46 207.98 387.25 207.87 387.03C207.224 385.867 206.961 384.53 207.12 383.21C207.203 382.632 207.412 382.079 207.731 381.59C208.051 381.101 208.474 380.688 208.97 380.38L209.25 380.23C209.702 379.995 210.201 379.862 210.71 379.84C211.524 379.831 212.318 380.099 212.96 380.6C213.552 381.057 214.034 381.642 214.37 382.31C214.636 382.835 214.783 383.412 214.8 384Z" fill="#E1E1E1"/>
<path fill-rule="evenodd" clip-rule="evenodd" d="M231.54 378.89C231.62 383.58 230.47 398.31 226.7 402.11H218.62C214.85 398.31 213.7 383.58 213.78 378.89H231.54Z" fill="#E1E1E1"/>
<path d="M362.13 399.72L359.66 383.98H329.21L326.74 399.72H362.13Z" fill="#D2CFD6"/>
<path d="M248.59 385.8C247.714 385.797 246.875 385.447 246.256 384.827C245.637 384.207 245.29 383.366 245.29 382.49V363.73H443.58V382.49C443.577 383.367 443.228 384.207 442.608 384.828C441.987 385.448 441.147 385.797 440.27 385.8H248.59Z" fill="white"/>
<path d="M443.33 364V382.51C443.33 383.322 443.008 384.1 442.434 384.674C441.86 385.248 441.082 385.57 440.27 385.57H248.59C247.789 385.554 247.026 385.225 246.465 384.653C245.904 384.081 245.59 383.311 245.59 382.51V364H443.33ZM443.83 363.5H245V382.5C245 383.442 245.374 384.346 246.039 385.014C246.705 385.681 247.608 386.057 248.55 386.06H440.27C441.214 386.06 442.12 385.685 442.787 385.017C443.455 384.35 443.83 383.444 443.83 382.5V363.5Z" fill="#404040"/>
<path d="M438.36 256.24H250.51C249.794 256.237 249.085 256.376 248.423 256.647C247.761 256.919 247.158 257.318 246.65 257.822C246.142 258.326 245.739 258.926 245.463 259.586C245.186 260.246 245.043 260.954 245.04 261.67V364.87H443.83V261.67C443.827 260.954 443.684 260.246 443.408 259.586C443.131 258.926 442.728 258.326 442.22 257.822C441.712 257.318 441.109 256.919 440.447 256.647C439.785 256.376 439.076 256.237 438.36 256.24Z" fill="#404040"/>
<path d="M436.68 262.73H252.39V358.47H436.68V262.73Z" fill="#3F3D56"/>
<path d="M376.57 399.72H312.3V402.08H376.57V399.72Z" fill="#EAEAEA"/>
<path d="M344.43 379.44C346.551 379.44 348.27 377.734 348.27 375.63C348.27 373.526 346.551 371.82 344.43 371.82C342.309 371.82 340.59 373.526 340.59 375.63C340.59 377.734 342.309 379.44 344.43 379.44Z" fill="#333333"/>
<path d="M436.75 262.73H317.2V358.47H436.75V262.73Z" fill="#565266"/>
<path d="M436.75 262.73H317.2V269.18H436.75V262.73Z" fill="#B0BAEA"/>
<path d="M322.98 267.33C323.753 267.33 324.38 266.712 324.38 265.95C324.38 265.188 323.753 264.57 322.98 264.57C322.207 264.57 321.58 265.188 321.58 265.95C321.58 266.712 322.207 267.33 322.98 267.33Z" fill="#E84D4D"/>
<path d="M328.19 267.33C328.963 267.33 329.59 266.712 329.59 265.95C329.59 265.188 328.963 264.57 328.19 264.57C327.417 264.57 326.79 265.188 326.79 265.95C326.79 266.712 327.417 267.33 328.19 267.33Z" fill="#F2DD77"/>
<path d="M333.14 267.33C333.913 267.33 334.54 266.712 334.54 265.95C334.54 265.188 333.913 264.57 333.14 264.57C332.367 264.57 331.74 265.188 331.74 265.95C331.74 266.712 332.367 267.33 333.14 267.33Z" fill="#4EB785"/>
<path d="M324.08 274.61C325.25 274.54 325.57 274.45 325.57 274.24C325.57 274.03 325.24 273.81 324.33 273.69V273.35L325.44 272.49H324.14V271.81H326.19L326.25 272.49L325.19 273.29C326.02 273.47 326.34 273.8 326.34 274.19C326.34 274.79 325.67 275.24 324.13 275.32L324.08 274.61ZM327.13 275.24L327.06 274.63C328.06 273.93 328.56 273.47 328.56 273.02C328.56 272.57 328.24 272.52 327.16 272.49L327.23 271.77C328.86 271.77 329.34 272.23 329.34 272.77C329.34 273.31 328.84 273.91 328.02 274.53H329.41V275.2L327.13 275.24ZM324.08 281.26C325.25 281.19 325.57 281.09 325.57 280.88C325.57 280.67 325.24 280.46 324.33 280.34V280L325.44 279.13H324.14V278.46H326.19L326.25 279.13L325.19 279.94C326.02 280.11 326.34 280.45 326.34 280.83C326.34 281.44 325.67 281.89 324.13 281.97L324.08 281.26ZM327.13 281.89L327.06 281.28C328.06 280.57 328.56 280.12 328.56 279.67C328.56 279.22 328.24 279.17 327.16 279.14L327.23 278.41C328.86 278.41 329.34 278.88 329.34 279.41C329.34 279.94 328.84 280.56 328.02 281.18H329.41V281.85L327.13 281.89ZM324.08 287.91C325.25 287.84 325.57 287.74 325.57 287.53C325.57 287.32 325.24 287.11 324.33 286.99V286.65L325.44 285.78H324.14V285.11H326.19L326.25 285.78L325.19 286.59C326.02 286.76 326.34 287.1 326.34 287.48C326.34 288.09 325.67 288.54 324.13 288.62L324.08 287.91ZM329.23 288V288.59H328.5V288H327.06C327.049 287.03 327.16 286.062 327.39 285.12L328.23 285.17L327.68 287.33H328.5V286.2L329.23 286.12V287.28H329.6L329.53 287.95L329.23 288ZM324.08 294.56C325.25 294.48 325.57 294.39 325.57 294.18C325.57 293.97 325.24 293.75 324.33 293.64V293.29L325.44 292.43H324.14V291.75H326.19L326.25 292.43L325.19 293.24C326.02 293.41 326.34 293.75 326.34 294.13C326.34 294.73 325.67 295.19 324.13 295.26L324.08 294.56ZM327.17 295.27V294.55C328.34 294.46 328.7 294.35 328.7 294.06C328.7 293.77 328.31 293.64 327.26 293.52L327.37 291.75H329.37L329.31 292.44H328V293.03C329.11 293.2 329.44 293.59 329.44 294.03C329.4 294.66 328.74 295.18 327.17 295.27ZM324.08 301.2C325.25 301.13 325.57 301.04 325.57 300.83C325.57 300.62 325.24 300.4 324.33 300.28V299.94L325.44 299.08H324.14V298.4H326.19L326.25 299.08L325.19 299.89C326.02 300.06 326.34 300.4 326.34 300.78C326.34 301.38 325.67 301.83 324.13 301.91L324.08 301.2ZM327 300.55C327 299.55 327.56 298.82 328.83 298.28L329.15 298.93C328.31 299.24 327.96 299.54 327.82 299.93C328.6 299.48 329.49 299.85 329.49 300.73C329.488 300.9 329.452 301.068 329.383 301.224C329.314 301.38 329.214 301.52 329.089 301.635C328.964 301.751 328.816 301.84 328.656 301.896C328.495 301.953 328.325 301.976 328.155 301.964C327.985 301.953 327.819 301.907 327.668 301.829C327.517 301.751 327.383 301.643 327.275 301.511C327.166 301.38 327.086 301.228 327.039 301.064C326.992 300.9 326.979 300.729 327 300.56V300.55ZM328.76 300.78C328.76 300.3 328.35 300.11 327.76 300.38V300.47C327.76 301.06 328.01 301.3 328.32 301.3C328.63 301.3 328.76 301.13 328.76 300.78ZM324.08 307.85C325.25 307.78 325.57 307.69 325.57 307.48C325.57 307.27 325.24 307.05 324.33 306.93V306.59L325.44 305.73H324.14V305.05H326.19L326.25 305.73L325.19 306.53C326.02 306.71 326.34 307.04 326.34 307.43C326.34 308.03 325.67 308.48 324.13 308.56L324.08 307.85ZM327.39 308.45C327.727 307.514 328.166 306.619 328.7 305.78H327.1L327.16 305.08H329.49V305.76C328.96 306.645 328.524 307.584 328.19 308.56L327.39 308.45ZM324.08 314.5C325.25 314.43 325.57 314.33 325.57 314.12C325.57 313.91 325.24 313.7 324.33 313.58V313.24L325.44 312.37H324.14V311.7H326.19L326.25 312.37L325.19 313.18C326.02 313.35 326.34 313.69 326.34 314.07C326.34 314.68 325.67 315.13 324.13 315.21L324.08 314.5ZM327 314.33C327.183 314.273 327.344 314.16 327.46 314.008C327.576 313.855 327.641 313.67 327.647 313.478C327.652 313.286 327.598 313.097 327.491 312.938C327.384 312.779 327.23 312.657 327.05 312.59C327.05 312.11 327.47 311.59 328.27 311.59C328.9 311.59 329.4 311.92 329.4 312.43C329.389 312.616 329.325 312.795 329.218 312.947C329.11 313.099 328.962 313.218 328.79 313.29C329.15 313.5 329.47 313.76 329.47 314.18C329.47 314.6 328.98 315.18 328.17 315.18C327.36 315.18 327 314.86 327 314.33ZM328.71 314.33C328.71 314.08 328.39 313.89 328.03 313.69C327.945 313.748 327.874 313.826 327.824 313.916C327.774 314.006 327.745 314.107 327.74 314.21C327.74 314.46 327.89 314.65 328.24 314.65C328.59 314.65 328.72 314.48 328.72 314.3L328.71 314.33ZM328.39 313.12C328.468 313.066 328.533 312.994 328.58 312.911C328.627 312.828 328.654 312.735 328.66 312.64C328.66 312.41 328.54 312.24 328.22 312.24C327.9 312.24 327.8 312.38 327.8 312.53C327.8 312.68 328.08 312.92 328.4 313.09L328.39 313.12ZM324.08 321.15C325.25 321.08 325.57 320.98 325.57 320.77C325.57 320.56 325.24 320.34 324.33 320.23V319.88L325.44 319.02H324.14V318.35H326.19L326.25 319.02L325.19 319.83C326.02 320 326.34 320.34 326.34 320.72C326.34 321.32 325.67 321.78 324.13 321.86L324.08 321.15ZM327.33 321.25C328.17 320.93 328.52 320.64 328.66 320.25C327.88 320.69 326.99 320.33 326.99 319.45C326.992 319.28 327.028 319.112 327.097 318.956C327.166 318.8 327.266 318.66 327.391 318.545C327.516 318.429 327.664 318.341 327.824 318.284C327.985 318.227 328.155 318.204 328.325 318.216C328.495 318.227 328.661 318.273 328.812 318.351C328.963 318.429 329.097 318.537 329.205 318.669C329.314 318.8 329.394 318.952 329.441 319.116C329.488 319.28 329.501 319.451 329.48 319.62C329.48 320.62 328.92 321.35 327.65 321.89L327.33 321.25ZM328.74 319.8V319.71C328.74 319.12 328.49 318.88 328.18 318.88C327.87 318.88 327.72 319.05 327.72 319.39C327.72 319.88 328.13 320.06 328.74 319.8ZM326.16 327.84V328.43H325.43V327.84H324C323.989 326.87 324.1 325.902 324.33 324.96L325.17 325.01L324.62 327.17H325.44V326.09L326.17 326.01V327.17H326.53L326.47 327.84H326.16ZM326.94 326.77C326.94 325.66 327.45 324.92 328.28 324.92C329.11 324.92 329.54 325.57 329.54 326.65C329.54 327.73 329.03 328.5 328.19 328.5C327.35 328.5 326.94 327.85 326.94 326.77ZM327.69 326.7L328.74 326.16C328.66 325.78 328.49 325.55 328.23 325.55C327.97 325.55 327.69 325.93 327.69 326.63V326.7ZM328.79 326.79L327.79 327.32C327.87 327.69 328.03 327.91 328.29 327.91C328.55 327.91 328.79 327.49 328.79 326.79ZM326.16 334.49V335.07H325.43V334.49H324C323.988 333.52 324.099 332.552 324.33 331.61L325.17 331.66L324.62 333.82H325.44V332.74L326.17 332.66V333.82H326.53L326.47 334.49H326.16ZM327.09 335.07V334.42H328V332.66H327.19V332.09L328 332V331.59L328.76 331.53V334.41H329.58L329.52 335.06L327.09 335.07ZM326.16 341.13V341.72H325.43V341.13H324C323.988 340.163 324.099 339.199 324.33 338.26L325.17 338.31L324.62 340.46H325.44V339.39L326.17 339.31V340.46H326.53L326.47 341.13H326.16ZM327.13 341.72L327.06 341.11C328.06 340.4 328.56 339.95 328.56 339.5C328.56 339.05 328.24 339 327.16 338.97L327.23 338.24C328.86 338.24 329.34 338.71 329.34 339.29C329.34 339.87 328.84 340.43 328.02 341.05H329.41V341.72H327.13ZM326.16 347.78V348.37H325.43V347.78H324C323.989 346.81 324.1 345.842 324.33 344.9L325.17 344.95L324.62 347.11H325.44V346L326.17 345.93V347.08H326.53L326.47 347.75L326.16 347.78ZM327.15 347.74C328.32 347.67 328.64 347.57 328.64 347.36C328.64 347.15 328.31 346.94 327.4 346.82V346.48L328.51 345.61H327.21V344.94H329.21L329.27 345.61L328.21 346.42C329.04 346.59 329.36 346.93 329.36 347.31C329.36 347.92 328.69 348.37 327.15 348.45V347.74ZM326.16 354.43V355H325.43V354.41H324C323.989 353.44 324.1 352.472 324.33 351.53L325.17 351.58L324.62 353.74H325.44V352.66L326.17 352.58V353.74H326.53L326.47 354.41L326.16 354.43ZM329.23 354.43V355H328.5V354.41H327.06C327.049 353.44 327.16 352.472 327.39 351.53L328.23 351.58L327.68 353.74H328.5V352.66L329.23 352.58V353.74H329.6L329.53 354.41L329.23 354.43Z" fill="#706D84"/>
<path opacity="0.39" d="M405.5 272.33H334.54V275.4H405.5V272.33Z" fill="#A3848D"/>
<path opacity="0.39" d="M410.1 278.92H334.54V281.99H410.1V278.92Z" fill="#A58492"/>
<path opacity="0.39" d="M396.12 285.57H334.54V288.64H396.12V285.57Z" fill="#A284A3"/>
<path opacity="0.39" d="M387.22 292.28H334.54V295.35H387.22V292.28Z" fill="#9084A0"/>
<path opacity="0.39" d="M378.22 298.86H334.54V301.93H378.22V298.86Z" fill="#83859E"/>
<path opacity="0.39" d="M407.62 305.56H334.54V308.63H407.62V305.56Z" fill="#83929B"/>
<path opacity="0.39" d="M420.26 312.42H334.54V315.49H420.26V312.42Z" fill="#829995"/>
<path opacity="0.39" d="M406.08 318.86H334.54V321.93H406.08V318.86Z" fill="#84998B"/>
<path opacity="0.39" d="M402.06 325.51H334.54V328.58H402.06V325.51Z" fill="#899985"/>
<path opacity="0.39" d="M366.64 332.1H334.54V335.17H366.64V332.1Z" fill="#979987"/>
<path opacity="0.39" d="M428.02 338.75H334.54V341.82H428.02V338.75Z" fill="#999488"/>
<path opacity="0.39" d="M402.06 345.4H334.54V348.47H402.06V345.4Z" fill="#998E8A"/>
<path opacity="0.39" d="M384.45 352.05H334.42V355.12H384.45V352.05Z" fill="#998C8C"/>
<path d="M306.78 265.41H261.45C259.478 265.41 257.88 265.955 257.88 266.628V346.782C257.88 347.455 259.478 348 261.45 348H306.78C308.752 348 310.35 347.455 310.35 346.782V266.628C310.35 265.955 308.752 265.41 306.78 265.41Z" fill="#F0F0F2"/>
<path d="M265.67 269.981H298.02" stroke="#DD859C" stroke-width="1.2" stroke-miterlimit="10" stroke-linecap="round"/>
<path d="M265.67 271.785H303.77" stroke="#DD859C" stroke-width="1.2" stroke-miterlimit="10" stroke-linecap="round"/>
<path d="M265.67 273.593H298.02" stroke="#DD859C" stroke-width="1.2" stroke-miterlimit="10" stroke-linecap="round"/>
<path d="M301.2 276.414H267.05C265.272 276.414 263.83 276.906 263.83 277.512V284.917C263.83 285.524 265.272 286.016 267.05 286.016H301.2C302.978 286.016 304.42 285.524 304.42 284.917V277.512C304.42 276.906 302.978 276.414 301.2 276.414Z" fill="#F2C5C2"/>
<g style="mix-blend-mode:overlay" opacity="0.48">
<path d="M278.57 279.347C278.616 279.727 278.328 280.102 277.743 280.425C277.159 280.748 276.304 281.004 275.29 281.161C274.275 281.317 273.146 281.366 272.049 281.301C270.952 281.237 269.937 281.062 269.133 280.8C268.329 280.537 267.775 280.198 267.54 279.827C267.305 279.456 267.402 279.069 267.816 278.717C268.231 278.364 268.945 278.062 269.867 277.849C270.789 277.637 271.877 277.523 272.99 277.522C273.708 277.517 274.422 277.56 275.091 277.649C275.76 277.737 276.371 277.87 276.89 278.04C277.408 278.209 277.823 278.412 278.112 278.637C278.4 278.861 278.556 279.102 278.57 279.347Z" fill="white"/>
</g>
<path opacity="0.68" d="M268.8 284.477H285.56" stroke="white" stroke-width="1.2" stroke-miterlimit="10" stroke-linecap="round"/>
<path opacity="0.68" d="M268.8 282.901H293.32" stroke="white" stroke-width="1.2" stroke-miterlimit="10" stroke-linecap="round"/>
<path d="M298.18 287.581H267.17C265.325 287.581 263.83 288.091 263.83 288.721V303.265C263.83 303.894 265.325 304.404 267.17 304.404H298.18C300.025 304.404 301.52 303.894 301.52 303.265V288.721C301.52 288.091 300.025 287.581 298.18 287.581Z" fill="#BDC0F4"/>
<path opacity="0.81" d="M270.12 296.102H281.69" stroke="white" stroke-width="1.2" stroke-miterlimit="10" stroke-linecap="round"/>
<path opacity="0.81" d="M270.12 294.526H287.05" stroke="white" stroke-width="1.2" stroke-miterlimit="10" stroke-linecap="round"/>
<path opacity="0.81" d="M270.12 292.868H292.46" stroke="white" stroke-width="1.2" stroke-miterlimit="10" stroke-linecap="round"/>
<path opacity="0.81" d="M270.12 291.064H296.42" stroke="white" stroke-width="1.2" stroke-miterlimit="10" stroke-linecap="round"/>
<path opacity="0.81" d="M270.12 289.256H292.46" stroke="white" stroke-width="1.2" stroke-miterlimit="10" stroke-linecap="round"/>
<path d="M301.2 306.482H267.05C265.272 306.482 263.83 306.973 263.83 307.58V325.324C263.83 325.93 265.272 326.422 267.05 326.422H301.2C302.978 326.422 304.42 325.93 304.42 325.324V307.58C304.42 306.973 302.978 306.482 301.2 306.482Z" fill="#C2E7EF"/>
<path opacity="0.81" d="M268.98 323.642H282.87" stroke="white" stroke-width="1.2" stroke-miterlimit="10" stroke-linecap="round"/>
<path opacity="0.81" d="M268.85 322.404H287.18" stroke="white" stroke-width="1.2" stroke-miterlimit="10" stroke-linecap="round"/>
<path opacity="0.81" d="M268.62 321.104H290.2" stroke="white" stroke-width="1.2" stroke-miterlimit="10" stroke-linecap="round"/>
<path opacity="0.68" d="M268.68 319.818H288.8" stroke="white" stroke-width="1.2" stroke-miterlimit="10" stroke-linecap="round"/>
<path opacity="0.68" d="M268.75 318.536H282.5" stroke="white" stroke-width="1.2" stroke-miterlimit="10" stroke-linecap="round"/>
<g style="mix-blend-mode:overlay" opacity="0.48">
<path d="M291.16 308.092H275.66C271.871 308.092 268.8 309.139 268.8 310.431V313.669C268.8 314.961 271.871 316.008 275.66 316.008H291.16C294.949 316.008 298.02 314.961 298.02 313.669V310.431C298.02 309.139 294.949 308.092 291.16 308.092Z" fill="white"/>
</g>
<path d="M300.86 330.307H267.72C265.875 330.307 264.38 330.817 264.38 331.447V342.969C264.38 343.598 265.875 344.108 267.72 344.108H300.86C302.705 344.108 304.2 343.598 304.2 342.969V331.447C304.2 330.817 302.705 330.307 300.86 330.307Z" fill="#D0B6D1"/>
<path opacity="0.81" d="M271.03 341.901H294.62" stroke="white" stroke-width="1.2" stroke-miterlimit="10" stroke-linecap="round"/>
<path opacity="0.81" d="M271.03 340.417H298.81" stroke="white" stroke-width="1.2" stroke-miterlimit="10" stroke-linecap="round"/>
<path opacity="0.81" d="M271.03 338.937H294.62" stroke="white" stroke-width="1.2" stroke-miterlimit="10" stroke-linecap="round"/>
<path opacity="0.81" d="M271.03 337.296H283.25" stroke="white" stroke-width="1.2" stroke-miterlimit="10" stroke-linecap="round"/>
<path opacity="0.81" d="M271.03 336.004H288.91" stroke="white" stroke-width="1.2" stroke-miterlimit="10" stroke-linecap="round"/>
<path opacity="0.81" d="M271.03 334.646H294.62" stroke="white" stroke-width="1.2" stroke-miterlimit="10" stroke-linecap="round"/>
<path opacity="0.81" d="M271.03 333.162H298.81" stroke="white" stroke-width="1.2" stroke-miterlimit="10" stroke-linecap="round"/>
<path opacity="0.81" d="M271.03 331.682H294.62" stroke="white" stroke-width="1.2" stroke-miterlimit="10" stroke-linecap="round"/>
<path d="M310.36 265.95H257.98V270.2H310.36V265.95Z" fill="#DDDDDD"/>
<path d="M260.91 269C261.424 269 261.84 268.588 261.84 268.08C261.84 267.572 261.424 267.16 260.91 267.16C260.396 267.16 259.98 267.572 259.98 268.08C259.98 268.588 260.396 269 260.91 269Z" fill="#AFAFAF"/>
<path d="M264.38 269C264.894 269 265.31 268.588 265.31 268.08C265.31 267.572 264.894 267.16 264.38 267.16C263.866 267.16 263.45 267.572 263.45 268.08C263.45 268.588 263.866 269 264.38 269Z" fill="#EAEAEA"/>
<path d="M267.69 269C268.204 269 268.62 268.588 268.62 268.08C268.62 267.572 268.204 267.16 267.69 267.16C267.176 267.16 266.76 267.572 266.76 268.08C266.76 268.588 267.176 269 267.69 269Z" fill="#AFAFAF"/>
<path d="M310.35 352.05H257.88V354.9H310.35V352.05Z" fill="#EAEAEA"/>
<path d="M310.36 270.2H306.52V352.04H310.36V270.2Z" fill="white"/>
<path d="M308.62 271.77H308.26C307.697 271.77 307.24 272.227 307.24 272.79V292.96C307.24 293.523 307.697 293.98 308.26 293.98H308.62C309.183 293.98 309.64 293.523 309.64 292.96V272.79C309.64 272.227 309.183 271.77 308.62 271.77Z" fill="#DDDDDD"/>
</svg>
