<svg id="visual" viewBox="0 0 900 600" width="900" height="600" xmlns="http://www.w3.org/2000/svg" xmlns:xlink="http://www.w3.org/1999/xlink" version="1.1"><rect x="0" y="0" width="900" height="600" fill="#001220"></rect><path d="M0 207L15 205.2C30 203.3 60 199.7 90 197.2C120 194.7 150 193.3 180 200.3C210 207.3 240 222.7 270 224.3C300 226 330 214 360 203.3C390 192.7 420 183.3 450 188.7C480 194 510 214 540 225.8C570 237.7 600 241.3 630 240.2C660 239 690 233 720 231C750 229 780 231 810 224C840 217 870 201 885 193L900 185L900 0L885 0C870 0 840 0 810 0C780 0 750 0 720 0C690 0 660 0 630 0C600 0 570 0 540 0C510 0 480 0 450 0C420 0 390 0 360 0C330 0 300 0 270 0C240 0 210 0 180 0C150 0 120 0 90 0C60 0 30 0 15 0L0 0Z" fill="#33739d"></path><path d="M0 127L15 130.3C30 133.7 60 140.3 90 141.8C120 143.3 150 139.7 180 142C210 144.3 240 152.7 270 156.3C300 160 330 159 360 158.5C390 158 420 158 450 156.5C480 155 510 152 540 147.5C570 143 600 137 630 145.2C660 153.3 690 175.7 720 184.8C750 194 780 190 810 189.3C840 188.7 870 191.3 885 192.7L900 194L900 0L885 0C870 0 840 0 810 0C780 0 750 0 720 0C690 0 660 0 630 0C600 0 570 0 540 0C510 0 480 0 450 0C420 0 390 0 360 0C330 0 300 0 270 0C240 0 210 0 180 0C150 0 120 0 90 0C60 0 30 0 15 0L0 0Z" fill="#2f5b80"></path><path d="M0 109L15 115.5C30 122 60 135 90 135.3C120 135.7 150 123.3 180 114.5C210 105.7 240 100.3 270 103.2C300 106 330 117 360 124.3C390 131.7 420 135.3 450 138.8C480 142.3 510 145.7 540 146.5C570 147.3 600 145.7 630 138.7C660 131.7 690 119.3 720 112.2C750 105 780 103 810 109.2C840 115.3 870 129.7 885 136.8L900 144L900 0L885 0C870 0 840 0 810 0C780 0 750 0 720 0C690 0 660 0 630 0C600 0 570 0 540 0C510 0 480 0 450 0C420 0 390 0 360 0C330 0 300 0 270 0C240 0 210 0 180 0C150 0 120 0 90 0C60 0 30 0 15 0L0 0Z" fill="#284464"></path><path d="M0 110L15 109.3C30 108.7 60 107.3 90 105.2C120 103 150 100 180 91.7C210 83.3 240 69.7 270 67.8C300 66 330 76 360 78.2C390 80.3 420 74.7 450 79.2C480 83.7 510 98.3 540 105.3C570 112.3 600 111.7 630 106C660 100.3 690 89.7 720 81.3C750 73 780 67 810 73C840 79 870 97 885 106L900 115L900 0L885 0C870 0 840 0 810 0C780 0 750 0 720 0C690 0 660 0 630 0C600 0 570 0 540 0C510 0 480 0 450 0C420 0 390 0 360 0C330 0 300 0 270 0C240 0 210 0 180 0C150 0 120 0 90 0C60 0 30 0 15 0L0 0Z" fill="#1f2f49"></path><path d="M0 29L15 31.5C30 34 60 39 90 38.3C120 37.7 150 31.3 180 32.5C210 33.7 240 42.3 270 48.8C300 55.3 330 59.7 360 60.5C390 61.3 420 58.7 450 56.5C480 54.3 510 52.7 540 55.7C570 58.7 600 66.3 630 66.7C660 67 690 60 720 55.5C750 51 780 49 810 46.3C840 43.7 870 40.3 885 38.7L900 37L900 0L885 0C870 0 840 0 810 0C780 0 750 0 720 0C690 0 660 0 630 0C600 0 570 0 540 0C510 0 480 0 450 0C420 0 390 0 360 0C330 0 300 0 270 0C240 0 210 0 180 0C150 0 120 0 90 0C60 0 30 0 15 0L0 0Z" fill="#141b2f"></path></svg>